<svg width="30" height="30" viewBox="0 0 30 30" fill="none" xmlns="http://www.w3.org/2000/svg">
<path d="M8.12517 22.25H21.6617C22.8491 22.25 23.4429 22.25 23.9268 22.0355C24.3534 21.8464 24.7185 21.5416 24.9809 21.1557C25.2785 20.718 25.3848 20.1338 25.5972 18.9655L27.2857 9.67889C27.3593 9.27397 27.3961 9.07151 27.3392 8.91343C27.2893 8.77473 27.192 8.65814 27.0645 8.58423C26.9191 8.5 26.7133 8.5 26.3018 8.5H6.25017M2.5 3.5H4.14551C4.44887 3.5 4.60055 3.5 4.72322 3.55541C4.83134 3.60425 4.92333 3.68285 4.98844 3.78204C5.0623 3.89456 5.08596 4.04439 5.13327 4.34404L8.61673 26.406C8.66404 26.7056 8.6877 26.8554 8.76156 26.968C8.82667 27.0671 8.91866 27.1458 9.02678 27.1946C9.14945 27.25 9.30113 27.25 9.60449 27.25H23.75" stroke="#142850" stroke-linecap="round" stroke-linejoin="round"/>
</svg>
