<svg width="20" height="20" viewBox="0 0 20 20" fill="none" xmlns="http://www.w3.org/2000/svg">
<path fill-rule="evenodd" clip-rule="evenodd" d="M5.36064 15.323L5.33081 15.1452L5.15467 15.1067C4.24963 14.9086 3.54894 14.06 3.52246 13.0475C3.52425 11.8938 4.46766 10.9446 5.59998 10.9446C6.73337 10.9446 7.6775 11.8956 7.6775 13.0508C7.6775 14.0264 7.00969 14.8312 6.13984 15.0828L5.89797 15.1527L5.95394 15.3982C6.08991 15.9946 6.41686 16.6274 6.81695 17.1856C7.21767 17.7447 7.70578 18.2486 8.18252 18.5804L8.18569 18.5826C8.90486 19.0679 9.73102 19.2612 10.4829 19.1027L10.4844 19.1024C11.5929 18.8619 12.2296 17.9587 12.5578 16.9657C12.8865 15.9711 12.9291 14.8282 12.8132 13.9765C12.6695 12.8429 12.2974 11.6584 11.7857 10.5649L11.7138 10.4112H10.986C9.09914 10.4112 7.56897 8.86703 7.56897 6.94909V0.70615C7.56897 0.454877 7.75961 0.266602 7.99998 0.266602H10.1891V0.863212H8.15192V6.94909C8.15192 8.53397 9.41244 9.81462 10.986 9.81462H12.7442C14.3177 9.81462 15.5783 8.53397 15.5783 6.94909V0.863212H13.569V0.266602H15.7302C15.9706 0.266602 16.1612 0.454878 16.1612 0.70615V6.92084C16.1612 8.83878 14.631 10.383 12.7442 10.383H12.3403L12.4989 10.7544C12.937 11.7798 13.2368 12.83 13.3728 13.8766C13.5079 14.9022 13.4388 16.2266 13.0143 17.3567C12.5916 18.482 11.8315 19.3834 10.594 19.6546L10.5857 19.6567C10.3845 19.7076 10.1832 19.7333 9.95347 19.7333C9.25353 19.7333 8.52508 19.5234 7.8724 19.0743C7.33102 18.7 6.75991 18.1172 6.29368 17.4435C5.82685 16.769 5.47782 16.0215 5.36064 15.323ZM7.12246 13.0508C7.12246 12.2286 6.44798 11.5412 5.62788 11.5412C4.80779 11.5412 4.13331 12.2286 4.13331 13.0508C4.13331 13.873 4.80779 14.5604 5.62788 14.5604C6.44798 14.5604 7.12246 13.873 7.12246 13.0508Z" fill="#142850"/>
</svg>
