<svg width="40" height="40" viewBox="0 0 40 40" fill="none" xmlns="http://www.w3.org/2000/svg">
<path fill-rule="evenodd" clip-rule="evenodd" d="M19.984 1.31732C9.68138 1.31732 1.31738 9.68132 1.31738 19.984C1.31738 30.2853 9.68138 38.6507 19.984 38.6507C30.2854 38.6507 38.6507 30.2853 38.6507 19.984C38.6507 9.68132 30.2854 1.31732 19.984 1.31732ZM19.984 3.98399C28.8147 3.98399 35.984 11.1533 35.984 19.984C35.984 28.8147 28.8147 35.984 19.984 35.984C11.1534 35.984 3.98405 28.8147 3.98405 19.984C3.98405 11.1533 11.1534 3.98399 19.984 3.98399Z" fill="#E90359"/>
<path d="M19.984 3.98399C28.8147 3.98399 35.984 11.1533 35.984 19.984C35.984 28.8147 28.8147 35.984 19.984 35.984C11.1534 35.984 3.98405 28.8147 3.98405 19.984C3.98405 11.1533 11.1534 3.98399 19.984 3.98399Z" fill="#E90359"/>
<path fill-rule="evenodd" clip-rule="evenodd" d="M14.635 14.604H10.667C8.45766 14.604 6.66699 16.3947 6.66699 18.604V21.3014C6.66699 23.5107 8.45766 25.3014 10.667 25.3014H14.635V29.2987C14.635 31.508 16.4257 33.2987 18.635 33.2987H21.3323C23.5417 33.2987 25.3323 31.508 25.3323 29.2987V25.3014H29.3337C31.543 25.3014 33.3337 23.5107 33.3337 21.3014V18.604C33.3337 16.3947 31.543 14.604 29.3337 14.604H25.3323V10.6667C25.3323 8.45735 23.5417 6.66669 21.3323 6.66669H18.635C16.4257 6.66669 14.635 8.45735 14.635 10.6667V14.604ZM15.9683 17.2707C16.7043 17.2707 17.3017 16.6734 17.3017 15.9374V10.6667C17.3017 9.92935 17.8977 9.33335 18.635 9.33335H21.3323C22.0683 9.33335 22.6657 9.92935 22.6657 10.6667V15.9374C22.6657 16.6734 23.2617 17.2707 23.999 17.2707H29.3337C30.0697 17.2707 30.667 17.8667 30.667 18.604V21.3014C30.667 22.0374 30.0697 22.6347 29.3337 22.6347H23.999C23.2617 22.6347 22.6657 23.2307 22.6657 23.968V29.2987C22.6657 30.036 22.0683 30.632 21.3323 30.632H18.635C17.8977 30.632 17.3017 30.036 17.3017 29.2987V23.968C17.3017 23.2307 16.7043 22.6347 15.9683 22.6347H10.667C9.93099 22.6347 9.33366 22.0374 9.33366 21.3014V18.604C9.33366 17.8667 9.93099 17.2707 10.667 17.2707H15.9683Z" fill="#F7F7F9"/>
</svg>
