<svg width="30" height="30" viewBox="0 0 30 30" fill="none" xmlns="http://www.w3.org/2000/svg">
<path d="M2.82712 10.0558C2.88559 8.7783 3.08561 7.95439 3.35613 7.25502L3.35976 7.24536C3.62783 6.53369 4.04776 5.88898 4.59034 5.35611L4.59795 5.34864L4.60543 5.34102C5.13874 4.79775 5.78367 4.37823 6.49472 4.11088L6.50699 4.10618C7.20476 3.83483 8.02706 3.63554 9.30562 3.57709M2.82712 10.0558C2.76566 11.4207 2.75 11.8439 2.75 15.3828C2.75 18.9227 2.7648 19.3448 2.82709 20.71M2.82712 10.0558L2.82712 10.4001M3.36088 23.5209C3.62823 24.232 4.04775 24.8769 4.59102 25.4102L4.59862 25.4177L4.60609 25.4253C5.13899 25.9679 5.78371 26.3878 6.49539 26.6559L6.50602 26.6599C7.20442 26.9308 8.02713 27.1301 9.30562 27.1886M3.36088 23.5209L3.35618 23.5087C3.08483 22.8109 2.88554 21.9886 2.82709 20.71M3.36088 23.5209L3.34485 23.4365M2.82709 20.71L2.84803 20.8203M2.82709 20.71L2.82709 20.3649M3.34485 23.4365L2.84803 20.8203M3.34485 23.4365C3.13384 22.8791 2.91656 22.1013 2.84803 20.8203M3.34485 23.4365C3.35225 23.4561 3.35964 23.4754 3.36702 23.4944C3.63462 24.2158 4.05861 24.869 4.60852 25.4071C5.14639 25.9569 5.79934 26.3808 6.52049 26.6483C7.09922 26.8738 7.91469 27.1094 9.30543 27.1731C10.7089 27.237 11.1425 27.25 14.6328 27.25C18.1231 27.25 18.5571 27.237 19.9606 27.1731C21.3531 27.1093 22.1676 26.8724 22.7443 26.6487C23.4658 26.3812 24.1191 25.9572 24.6572 25.407C25.2069 24.8692 25.6308 24.2163 25.8984 23.4952C26.1238 22.9164 26.3594 22.101 26.4231 20.7102C26.487 19.3067 26.5 18.8723 26.5 15.3828C26.5 11.8934 26.487 11.4585 26.4231 10.0551C26.3589 8.65533 26.1199 7.83961 25.8952 7.2624C25.6014 6.50403 25.2289 5.93047 24.6562 5.35784C24.0848 4.78749 23.5127 4.41474 22.7538 4.12068C22.1746 3.89421 21.3583 3.65663 19.9606 3.59258C19.8391 3.58705 19.7248 3.5819 19.6152 3.57711M2.84803 20.8203C2.84609 20.7841 2.84427 20.7476 2.84258 20.7106C2.83704 20.589 2.83189 20.4746 2.82709 20.3649M9.30562 3.57709C10.6709 3.5148 11.0938 3.5 14.6328 3.5C18.1718 3.5 18.5946 3.51565 19.9595 3.57711M9.30562 3.57709L9.65081 3.57709M19.9595 3.57711L19.6152 3.57711M19.9595 3.57711C21.2372 3.63555 22.0612 3.83554 22.7607 4.10608L22.7703 4.10976C23.482 4.37783 24.1267 4.79776 24.6595 5.34034L24.6669 5.34787L24.6745 5.35527C25.2171 5.88819 25.637 6.53307 25.9049 7.24494L25.9095 7.25699C26.1808 7.95476 26.3801 8.77707 26.4386 10.0556M9.65081 3.57709L19.6152 3.57711M9.65081 3.57709C10.8069 3.52654 11.4459 3.51566 14.6328 3.51566C17.8201 3.51566 18.4589 3.52654 19.6152 3.57711M9.65081 3.57709C9.54109 3.58189 9.42671 3.58704 9.30506 3.59258C7.91259 3.65639 7.09808 3.8933 6.52139 4.11697C5.79713 4.38546 5.14164 4.8117 4.60244 5.36483C4.03516 5.93445 3.66384 6.50527 3.37072 7.26174C3.14424 7.84101 2.90662 8.65767 2.84256 10.0554C2.83705 10.1767 2.83191 10.2907 2.82712 10.4001M26.4386 20.71C26.3801 21.9885 26.1808 22.8113 25.91 23.5097L25.9059 23.5203C25.6378 24.232 25.2179 24.8767 24.6753 25.4095L24.6677 25.417L24.6602 25.4246C24.1269 25.9679 23.482 26.3874 22.7709 26.6548L22.7587 26.6595C22.0609 26.9308 21.2386 27.1301 19.96 27.1886M2.82709 20.3649C2.77654 19.2088 2.76566 18.5698 2.76566 15.3828C2.76566 12.1949 2.77653 11.5568 2.82712 10.4001M2.82709 20.3649L2.82712 10.4001M12.5194 20.4851C13.1894 20.7627 13.9076 20.9055 14.6328 20.9055C16.0975 20.9055 17.5023 20.3237 18.538 19.288C19.5737 18.2523 20.1555 16.8475 20.1555 15.3828C20.1555 13.9181 19.5737 12.5134 18.538 11.4777C17.5023 10.442 16.0975 9.86013 14.6328 9.86013C13.9076 9.86013 13.1894 10.003 12.5194 10.2805C11.8493 10.5581 11.2405 10.9649 10.7277 11.4777C10.2149 11.9905 9.80807 12.5993 9.53053 13.2694C9.25299 13.9394 9.11014 14.6576 9.11014 15.3828C9.11014 16.1081 9.25299 16.8262 9.53053 17.4963C9.80807 18.1663 10.2149 18.7751 10.7277 19.288C11.2405 19.8008 11.8493 20.2076 12.5194 20.4851ZM10.7154 11.4654C11.7544 10.4264 13.1635 9.84273 14.6328 9.84273C16.1022 9.84273 17.5113 10.4264 18.5503 11.4654C19.5892 12.5044 20.1729 13.9135 20.1729 15.3828C20.1729 16.8522 19.5892 18.2613 18.5503 19.3003C17.5113 20.3392 16.1022 20.9229 14.6328 20.9229C13.1635 20.9229 11.7544 20.3392 10.7154 19.3003C9.67642 18.2613 9.09274 16.8522 9.09274 15.3828C9.09274 13.9135 9.67642 12.5044 10.7154 11.4654ZM23.2925 8.55287C23.2925 8.97342 23.1255 9.37674 22.8281 9.67411C22.5307 9.97149 22.1274 10.1385 21.7068 10.1385C21.2863 10.1385 20.883 9.97149 20.5856 9.67411C20.2882 9.37674 20.1212 8.97342 20.1212 8.55287C20.1212 8.13232 20.2882 7.72899 20.5856 7.43162C20.883 7.13425 21.2863 6.96718 21.7068 6.96718C22.1274 6.96718 22.5307 7.13425 22.8281 7.43162C23.1255 7.72899 23.2925 8.13232 23.2925 8.55287Z" stroke="#142850" stroke-linejoin="round"/>
</svg>
