<svg width="30" height="30" viewBox="0 0 30 30" fill="none" xmlns="http://www.w3.org/2000/svg">
<path d="M20 20V23.5C20 24.9001 20 25.6002 19.7275 26.135C19.4878 26.6054 19.1054 26.9878 18.635 27.2275C18.1002 27.5 17.4001 27.5 16 27.5H6.5C5.09987 27.5 4.3998 27.5 3.86502 27.2275C3.39462 26.9878 3.01217 26.6054 2.77248 26.135C2.5 25.6002 2.5 24.9001 2.5 23.5V14C2.5 12.5999 2.5 11.8998 2.77248 11.365C3.01217 10.8946 3.39462 10.5122 3.86502 10.2725C4.3998 10 5.09987 10 6.5 10H10M14 20H23.5C24.9001 20 25.6002 20 26.135 19.7275C26.6054 19.4878 26.9878 19.1054 27.2275 18.635C27.5 18.1002 27.5 17.4001 27.5 16V6.5C27.5 5.09987 27.5 4.3998 27.2275 3.86502C26.9878 3.39462 26.6054 3.01217 26.135 2.77248C25.6002 2.5 24.9001 2.5 23.5 2.5H14C12.5999 2.5 11.8998 2.5 11.365 2.77248C10.8946 3.01217 10.5122 3.39462 10.2725 3.86502C10 4.3998 10 5.09987 10 6.5V16C10 17.4001 10 18.1002 10.2725 18.635C10.5122 19.1054 10.8946 19.4878 11.365 19.7275C11.8998 20 12.5999 20 14 20Z" stroke="#142850" stroke-linecap="round" stroke-linejoin="round"/>
</svg>
