<svg width="30" height="30" viewBox="0 0 30 30" fill="none" xmlns="http://www.w3.org/2000/svg">
<g clip-path="url(#clip0_401_2841)">
<path d="M1.57702 14.7476C1.57702 14.7476 1.57702 14.7476 1.57702 14.7476C1.6783 14.7453 1.77945 14.7419 1.88043 14.7373C5.23839 14.5856 8.41971 13.1706 10.7828 10.7696C10.7827 10.7697 10.7829 10.7695 10.7828 10.7696C13.1755 8.40102 14.589 5.2228 14.7497 1.86722C14.7546 1.76623 14.7583 1.66507 14.7608 1.56378C14.7608 1.56378 14.7609 1.56378 14.7608 1.56378C14.6732 5.03076 13.2475 8.32975 10.7828 10.7696C10.7827 10.7697 10.7829 10.7695 10.7828 10.7696C8.34866 13.2428 5.04629 14.6698 1.57702 14.7476Z" fill="#142850"/>
<path d="M5.02153 24.2277C5.02152 24.2277 5.02155 24.2277 5.02153 24.2277L24.2562 5.00834C24.2562 5.00832 24.2563 5.00835 24.2562 5.00834L5.02153 24.2277Z" fill="#142850"/>
<path d="M6.33205 25.5101C8.50533 27.3729 11.2161 28.4998 14.0749 28.7239C14.1678 24.8645 15.7424 21.1888 18.4722 18.4589C21.202 15.7291 24.8777 14.1545 28.7372 14.0617C28.5114 11.1902 27.3787 8.46734 25.5066 6.28471C25.5121 6.29111 25.5175 6.2975 25.523 6.30391C27.3197 8.40642 28.4317 11.0077 28.71 13.7593C28.7202 13.8599 28.7292 13.9607 28.7372 14.0617C28.636 14.0641 28.535 14.0676 28.4341 14.0721C24.6857 14.2379 21.1305 15.8007 18.4722 18.4589C15.8139 21.1172 14.2512 24.6724 14.0853 28.4208C14.0809 28.5217 14.0774 28.6227 14.0749 28.7239C13.9739 28.716 13.8731 28.707 13.7725 28.6968C11.0253 28.4193 8.42855 27.3071 6.33205 25.5101Z" fill="#142850"/>
<path d="M15.5991 28.7544C19.0647 28.6598 22.361 27.2354 24.8049 24.7764C27.2559 22.3347 28.6747 19.0443 28.7677 15.5859C28.7676 15.5859 28.7677 15.5859 28.7677 15.5859C28.7649 15.6872 28.7611 15.7883 28.7561 15.8893C28.5908 19.2363 27.1842 22.4062 24.8049 24.7764C22.4325 27.1636 19.2567 28.5758 15.9025 28.7428C15.8015 28.7478 15.7004 28.7516 15.5991 28.7544C15.5991 28.7544 15.5991 28.7544 15.5991 28.7544Z" fill="#142850"/>
<path fill-rule="evenodd" clip-rule="evenodd" d="M18.055 0.589691C20.9359 1.16411 23.5816 2.58011 25.6574 4.65855C28.4381 7.44264 30 11.2166 30 15.1515C30 19.0864 28.4381 22.8603 25.6574 25.6444C23.5816 27.7229 20.9359 29.1389 18.055 29.7133C15.1742 30.2877 12.1877 29.9947 9.47347 28.8714C6.7592 27.7481 4.4391 25.845 2.80672 23.4028C1.17434 20.9606 0.30303 18.089 0.30303 15.1515C0.30303 12.214 1.17434 9.34244 2.80672 6.90023C4.4391 4.45801 6.7592 2.55486 9.47347 1.43155C12.1877 0.308247 15.1742 0.0152708 18.055 0.589691ZM15.0638 1.57143C14.9742 5.11614 13.517 8.4888 10.9974 10.9836C8.50803 13.5121 5.13126 14.971 1.58381 15.0506L1.26588 15.0577L1.27409 14.7398C1.36565 11.194 2.81615 7.81885 5.32563 5.31215C7.83394 2.80533 11.2078 1.35542 14.7528 1.26085L15.0718 1.25234L15.0638 1.57143ZM1.60068 15.9688L1.27985 15.976L1.30544 16.2959C1.54708 19.3163 2.77333 22.1739 4.79595 24.43L5.00948 24.6682L24.6972 4.99614L24.4583 4.78247C22.1964 2.75952 19.334 1.53354 16.3091 1.29219L15.9896 1.2667L15.982 1.58709C15.8925 5.37083 14.3404 8.97271 11.6517 11.6365L11.6495 11.6387C8.98838 14.3309 5.38515 15.8836 1.60068 15.9688ZM14.0513 29.0261L14.3702 29.0511L14.3779 28.7313C14.4689 24.9496 16.0117 21.3481 18.6865 18.6733C21.3613 15.9985 24.9629 14.4557 28.7445 14.3647L29.0644 14.357L29.0393 14.038C28.8011 11.0077 27.5749 8.13937 25.5491 5.87327L25.3354 5.63426L5.6633 25.3219L5.9014 25.5355C8.16117 27.5622 11.0251 28.7888 14.0513 29.0261ZM29.0706 15.594C28.9756 19.1299 27.5251 22.4941 25.0193 24.9906C22.5207 27.5045 19.1505 28.9607 15.6074 29.0574L15.2887 29.0661L15.2962 28.7473C15.3797 25.2026 16.8251 21.8262 19.3323 19.319C21.8395 16.8119 25.2159 15.3665 28.7606 15.2829L29.0792 15.2754L29.0706 15.594Z" fill="#142850"/>
</g>
<defs>
<clipPath id="clip0_401_2841">
<rect width="30" height="30" fill="white"/>
</clipPath>
</defs>
</svg>
