<svg width="30" height="30" viewBox="0 0 30 30" fill="none" xmlns="http://www.w3.org/2000/svg">
<path d="M6.25 17.8579C3.9358 18.8788 2.5 20.3015 2.5 21.875C2.5 24.9816 8.09644 27.5 15 27.5C21.9036 27.5 27.5 24.9816 27.5 21.875C27.5 20.3015 26.0642 18.8788 23.75 17.8579M22.5 10C22.5 15.0796 16.875 17.5 15 21.25C13.125 17.5 7.5 15.0796 7.5 10C7.5 5.85786 10.8579 2.5 15 2.5C19.1421 2.5 22.5 5.85786 22.5 10ZM16.25 10C16.25 10.6904 15.6904 11.25 15 11.25C14.3096 11.25 13.75 10.6904 13.75 10C13.75 9.30964 14.3096 8.75 15 8.75C15.6904 8.75 16.25 9.30964 16.25 10Z" stroke="#142850" stroke-linecap="round" stroke-linejoin="round"/>
</svg>
