<svg width="30" height="30" viewBox="0 0 30 30" fill="none" xmlns="http://www.w3.org/2000/svg">
<path fill-rule="evenodd" clip-rule="evenodd" d="M8.04048 22.9847L7.99573 22.7179L7.73151 22.6601C6.37395 22.363 5.32292 21.0901 5.2832 19.5714C5.28589 17.8408 6.701 16.417 8.39948 16.417C10.0996 16.417 11.5158 17.8435 11.5158 19.5763C11.5158 21.0398 10.5141 22.2469 9.20928 22.6242L8.84647 22.7292L8.93042 23.0974C9.13437 23.992 9.6248 24.9412 10.2249 25.7786C10.826 26.6172 11.5582 27.3731 12.2733 27.8708L12.2781 27.874C13.3568 28.6019 14.596 28.892 15.7239 28.6541L15.7261 28.6536C17.3888 28.293 18.3439 26.9382 18.8362 25.4486C19.3293 23.9568 19.3931 22.2424 19.2193 20.9648C19.0037 19.2645 18.4456 17.4877 17.6781 15.8474L17.5702 15.617H16.4785C13.6482 15.617 11.353 13.3007 11.353 10.4238V1.05935C11.353 0.682438 11.6389 0.400024 11.9995 0.400024H15.2832V1.29494H12.2274V10.4238C12.2274 12.8011 14.1182 14.7221 16.4785 14.7221H19.1158C21.4761 14.7221 23.3669 12.8011 23.3669 10.4238V1.29494H20.353V0.400024H23.5948C23.9554 0.400024 24.2413 0.682438 24.2413 1.05935V10.3814C24.2413 13.2583 21.9461 15.5746 19.1158 15.5746H18.5099L18.7479 16.1317C19.405 17.6698 19.8547 19.2452 20.0587 20.815C20.2614 22.3534 20.1577 24.3401 19.521 26.0352C18.8869 27.7231 17.7468 29.0752 15.8906 29.482L15.8781 29.4851C15.5762 29.5615 15.2744 29.6 14.9297 29.6C13.8798 29.6 12.7871 29.2853 11.8081 28.6115C10.996 28.0501 10.1394 27.176 9.44002 26.1654C8.73979 25.1536 8.21624 24.0324 8.04048 22.9847ZM10.6832 19.5763C10.6832 18.343 9.67148 17.3119 8.44134 17.3119C7.2112 17.3119 6.19948 18.343 6.19948 19.5763C6.19948 20.8096 7.2112 21.8407 8.44134 21.8407C9.67148 21.8407 10.6832 20.8096 10.6832 19.5763Z" fill="#142850"/>
</svg>
