<svg width="30" height="30" viewBox="0 0 30 30" fill="none" xmlns="http://www.w3.org/2000/svg">
<path d="M20 25.25V23.75C20 21.6498 20 20.5997 19.5913 19.7975C19.2317 19.0919 18.6581 18.5183 17.9525 18.1587C17.1503 17.75 16.1002 17.75 14 17.75H8.5C6.3998 17.75 5.3497 17.75 4.54754 18.1587C3.84193 18.5183 3.26825 19.0919 2.90873 19.7975C2.5 20.5997 2.5 21.6498 2.5 23.75V25.25M20 6.5L22.5 9L27.5 4M15.625 8.375C15.625 10.7912 13.6662 12.75 11.25 12.75C8.83375 12.75 6.875 10.7912 6.875 8.375C6.875 5.95875 8.83375 4 11.25 4C13.6662 4 15.625 5.95875 15.625 8.375Z" stroke="#142850" stroke-linecap="round" stroke-linejoin="round"/>
</svg>
