<svg width="40" height="40" viewBox="0 0 40 40" fill="none" xmlns="http://www.w3.org/2000/svg">
<path d="M14.0009 10.3334C14.7373 9.78115 15.782 9.93038 16.3342 10.6667C16.8866 11.4031 16.7372 12.4478 16.0009 13.0001C13.3943 14.9551 11.8993 16.8558 11.0461 18.5162C11.5111 18.3968 11.9986 18.3333 12.5009 18.3333C15.7226 18.3333 18.3342 20.945 18.3342 24.1667C18.3342 27.3883 15.7226 30 12.5009 30C9.31148 30 6.7199 27.4403 6.66835 24.2632C6.51801 22.8215 6.53996 20.6948 7.5143 18.2395C8.51003 15.7303 10.4549 12.9929 14.0009 10.3334ZM29.0009 10.3334C29.7372 9.78115 30.7819 9.93038 31.3342 10.6667C31.8866 11.4031 31.7372 12.4478 31.0009 13.0001C28.3942 14.9551 26.8994 16.8558 26.0461 18.5162C26.5111 18.3968 26.9986 18.3333 27.5009 18.3333C30.7226 18.3333 33.3342 20.945 33.3342 24.1667C33.3342 27.3883 30.7226 30 27.5009 30C24.3114 30 21.7199 27.4403 21.6684 24.2632C21.5181 22.8215 21.5399 20.6948 22.5142 18.2395C23.5101 15.7303 25.4549 12.9929 29.0009 10.3334Z" fill="#142850"/>
</svg>
