<svg width="20" height="20" viewBox="0 0 20 20" fill="none" xmlns="http://www.w3.org/2000/svg">
<path d="M9.40223 2.8778C9.5943 2.48869 9.69034 2.29413 9.82071 2.23197C9.93414 2.17789 10.0659 2.17789 10.1794 2.23197C10.3097 2.29413 10.4058 2.48869 10.5978 2.8778L12.4201 6.56944C12.4768 6.68432 12.5051 6.74176 12.5466 6.78635C12.5832 6.82584 12.6272 6.85783 12.6761 6.88056C12.7313 6.90623 12.7947 6.91549 12.9215 6.93402L16.9975 7.5298C17.4267 7.59253 17.6414 7.6239 17.7407 7.72874C17.8271 7.81995 17.8677 7.94529 17.8513 8.06985C17.8324 8.21302 17.677 8.36436 17.3662 8.66702L14.4179 11.5387C14.326 11.6282 14.28 11.673 14.2504 11.7263C14.2241 11.7734 14.2073 11.8252 14.2008 11.8788C14.1934 11.9393 14.2043 12.0025 14.226 12.129L14.9217 16.1851C14.995 16.6129 15.0317 16.8269 14.9628 16.9538C14.9028 17.0642 14.7961 17.1417 14.6726 17.1646C14.5305 17.1909 14.3385 17.0899 13.9543 16.8879L10.3103 14.9716C10.1968 14.9119 10.14 14.882 10.0802 14.8703C10.0273 14.8599 9.9728 14.8599 9.91985 14.8703C9.86004 14.882 9.80327 14.9119 9.68973 14.9716L6.04579 16.8879C5.66162 17.0899 5.46953 17.1909 5.3275 17.1646C5.20392 17.1417 5.09729 17.0642 5.0373 16.9538C4.96835 16.8269 5.00504 16.6129 5.07842 16.1851L5.77409 12.129C5.79578 12.0025 5.80662 11.9393 5.79929 11.8788C5.79279 11.8252 5.77595 11.7734 5.74969 11.7263C5.72004 11.673 5.67408 11.6282 5.58217 11.5387L2.63382 8.66702C2.32307 8.36436 2.1677 8.21302 2.14879 8.06985C2.13234 7.94529 2.17298 7.81995 2.2594 7.72874C2.35872 7.6239 2.57333 7.59253 3.00256 7.5298L7.07861 6.93402C7.20537 6.91549 7.26875 6.90623 7.32395 6.88056C7.37282 6.85783 7.41682 6.82584 7.45351 6.78635C7.49494 6.74176 7.52329 6.68432 7.58 6.56944L9.40223 2.8778Z" stroke="#142850" stroke-linecap="round" stroke-linejoin="round"/>
</svg>
