<svg width="1235" height="148" viewBox="0 0 1235 148" fill="none" xmlns="http://www.w3.org/2000/svg">
<path d="M144.2 202L132.44 166.72H54.32L42.56 202H0.84L69.44 5.99999H117.32L186.2 202H144.2ZM66.64 130.6H120.4L93.52 50.52L66.64 130.6ZM229.871 45.2C223.898 45.2 218.671 43.0533 214.191 38.76C209.898 34.28 207.751 29.0533 207.751 23.08C207.751 17.1067 209.898 11.88 214.191 7.39999C218.671 2.91999 223.898 0.679988 229.871 0.679988C236.031 0.679988 241.258 2.91999 245.551 7.39999C250.031 11.88 252.271 17.1067 252.271 23.08C252.271 29.0533 250.031 34.28 245.551 38.76C241.258 43.0533 236.031 45.2 229.871 45.2ZM211.951 202V62H248.071V202H211.951ZM329.851 165.04H404.611V202H291.211V5.99999H329.851V165.04ZM473.603 165.04H556.203V202H434.963V5.99999H554.803V42.96H473.603V84.68H547.803V121.08H473.603V165.04ZM699.359 202L659.879 133.96H630.479V202H591.839V5.99999H670.239C688.346 5.99999 703.746 12.3467 716.439 25.04C729.132 37.7333 735.479 53.04 735.479 70.96C735.479 83.0933 732.026 94.3867 725.119 104.84C718.212 115.107 709.066 122.853 697.679 128.08L741.079 202H699.359ZM630.479 42.12V100.08H670.239C677.519 100.08 683.772 97.28 688.999 91.68C694.226 85.8933 696.839 78.9867 696.839 70.96C696.839 62.9333 694.226 56.12 688.999 50.52C683.772 44.92 677.519 42.12 670.239 42.12H630.479ZM962.404 96.72V111.84C962.404 139.84 953.444 162.52 935.524 179.88C917.604 197.24 894.457 205.92 866.084 205.92C835.844 205.92 810.737 196.12 790.764 176.52C770.977 156.733 761.084 132.653 761.084 104.28C761.084 75.72 770.884 51.5467 790.484 31.76C810.27 11.9733 834.724 2.07999 863.844 2.07999C882.137 2.07999 898.844 6.27999 913.964 14.68C929.084 22.8933 940.844 33.9067 949.244 47.72L916.204 66.76C911.537 58.7333 904.444 52.2 894.924 47.16C885.59 42.12 875.137 39.6 863.564 39.6C844.897 39.6 829.497 45.76 817.364 58.08C805.417 70.2133 799.444 85.6133 799.444 104.28C799.444 122.76 805.51 138.067 817.644 150.2C829.964 162.147 846.204 168.12 866.364 168.12C881.297 168.12 893.617 164.853 903.324 158.32C913.217 151.6 919.937 142.453 923.484 130.88H864.124V96.72H962.404ZM998.288 5.99999H1036.93V202H998.288V5.99999ZM1234.77 202H1190.25L1120.25 110.16V202H1081.61V5.99999H1120.25V92.52L1187.45 5.99999H1231.97L1159.45 101.2L1234.77 202Z" fill="#506184" fill-opacity="0.2"/>
</svg>
